<?xml version="1.0" encoding="UTF-8"?><svg xmlns="http://www.w3.org/2000/svg" xmlns:xlink="http://www.w3.org/1999/xlink" fill-opacity="1" color-rendering="auto" color-interpolation="auto" text-rendering="auto" stroke="black" stroke-linecap="square" width="766" stroke-miterlimit="10" shape-rendering="auto" stroke-opacity="1" fill="black" stroke-dasharray="none" font-weight="normal" stroke-width="1" height="484" font-family="'Dialog'" font-style="normal" stroke-linejoin="miter" font-size="12" stroke-dashoffset="0" image-rendering="auto">
  <!--Generated by ySVG 2.5-->
  <defs id="genericDefs"/>
  <g>
    <g fill="white" text-rendering="geometricPrecision" shape-rendering="geometricPrecision" transform="translate(4,-174)" stroke="white">
      <rect x="-4" width="766" height="484" y="174" clip-path="url(#clipPath2)" stroke="none"/>
    </g>
    <g fill="rgb(153,153,153)" text-rendering="geometricPrecision" shape-rendering="geometricPrecision" transform="matrix(1,0,0,1,4,-174)" stroke="rgb(153,153,153)">
      <rect x="148.785" width="109" height="268" y="189" clip-path="url(#clipPath2)" stroke="none"/>
    </g>
    <g text-rendering="geometricPrecision" stroke-miterlimit="1.45" shape-rendering="geometricPrecision" font-family="sans-serif" transform="matrix(1,0,0,1,4,-174)" stroke-linecap="butt">
      <text x="184.6112" xml:space="preserve" y="313.0127" clip-path="url(#clipPath2)" stroke="none">Servlet</text>
      <text x="187.2831" xml:space="preserve" y="327.7139" clip-path="url(#clipPath2)" stroke="none">Web- </text>
      <text x="174.5975" xml:space="preserve" y="342.415" clip-path="url(#clipPath2)" stroke="none">application</text>
      <rect fill="none" x="148.785" width="109" height="268" y="189" clip-path="url(#clipPath2)"/>
    </g>
    <g fill="silver" text-rendering="geometricPrecision" shape-rendering="geometricPrecision" transform="matrix(1,0,0,1,4,-174)" stroke="silver">
      <rect x="243.785" width="30" height="30" y="201" clip-path="url(#clipPath2)" stroke="none"/>
    </g>
    <g text-rendering="geometricPrecision" stroke-miterlimit="1.45" shape-rendering="geometricPrecision" transform="matrix(1,0,0,1,4,-174)" stroke-linecap="butt">
      <rect fill="none" x="243.785" width="30" height="30" y="201" clip-path="url(#clipPath2)"/>
    </g>
    <g fill="silver" text-rendering="geometricPrecision" shape-rendering="geometricPrecision" transform="matrix(1,0,0,1,4,-174)" stroke="silver">
      <rect x="134.785" width="30" height="30" y="204" clip-path="url(#clipPath2)" stroke="none"/>
    </g>
    <g text-rendering="geometricPrecision" stroke-miterlimit="1.45" shape-rendering="geometricPrecision" transform="matrix(1,0,0,1,4,-174)" stroke-linecap="butt">
      <rect fill="none" x="134.785" width="30" height="30" y="204" clip-path="url(#clipPath2)"/>
    </g>
    <g fill="silver" text-rendering="geometricPrecision" shape-rendering="geometricPrecision" transform="matrix(1,0,0,1,4,-174)" stroke="silver">
      <rect x="243.785" width="30" height="30" y="402" clip-path="url(#clipPath2)" stroke="none"/>
    </g>
    <g text-rendering="geometricPrecision" stroke-miterlimit="1.45" shape-rendering="geometricPrecision" transform="matrix(1,0,0,1,4,-174)" stroke-linecap="butt">
      <rect fill="none" x="243.785" width="30" height="30" y="402" clip-path="url(#clipPath2)"/>
    </g>
    <g fill="rgb(153,153,153)" text-rendering="geometricPrecision" shape-rendering="geometricPrecision" transform="matrix(1,0,0,1,4,-174)" stroke="rgb(153,153,153)">
      <rect x="378" width="115" height="54" y="189" clip-path="url(#clipPath2)" stroke="none"/>
    </g>
    <g text-rendering="geometricPrecision" stroke-miterlimit="1.45" shape-rendering="geometricPrecision" font-family="sans-serif" transform="matrix(1,0,0,1,4,-174)" stroke-linecap="butt">
      <text x="411.166" xml:space="preserve" y="213.3633" clip-path="url(#clipPath2)" stroke="none">JAX-WS </text>
      <text x="415.4932" xml:space="preserve" y="228.0645" clip-path="url(#clipPath2)" stroke="none">Service</text>
      <rect fill="none" x="378" width="115" height="54" y="189" clip-path="url(#clipPath2)"/>
    </g>
    <g fill="silver" text-rendering="geometricPrecision" shape-rendering="geometricPrecision" transform="matrix(1,0,0,1,4,-174)" stroke="silver">
      <rect x="362" width="30" height="30" y="201" clip-path="url(#clipPath2)" stroke="none"/>
    </g>
    <g text-rendering="geometricPrecision" stroke-miterlimit="1.45" shape-rendering="geometricPrecision" transform="matrix(1,0,0,1,4,-174)" stroke-linecap="butt">
      <rect fill="none" x="362" width="30" height="30" y="201" clip-path="url(#clipPath2)"/>
    </g>
    <g fill="rgb(153,153,153)" text-rendering="geometricPrecision" shape-rendering="geometricPrecision" transform="matrix(1,0,0,1,4,-174)" stroke="rgb(153,153,153)">
      <rect x="378" width="115" height="52" y="391" clip-path="url(#clipPath2)" stroke="none"/>
    </g>
    <g text-rendering="geometricPrecision" stroke-miterlimit="1.45" shape-rendering="geometricPrecision" font-family="sans-serif" transform="matrix(1,0,0,1,4,-174)" stroke-linecap="butt">
      <text x="412.4961" xml:space="preserve" y="414.3633" clip-path="url(#clipPath2)" stroke="none">JAX-RS </text>
      <text x="415.4932" xml:space="preserve" y="429.0645" clip-path="url(#clipPath2)" stroke="none">Service</text>
      <rect fill="none" x="378" width="115" height="52" y="391" clip-path="url(#clipPath2)"/>
    </g>
    <g fill="silver" text-rendering="geometricPrecision" shape-rendering="geometricPrecision" transform="matrix(1,0,0,1,4,-174)" stroke="silver">
      <rect x="362" width="30" height="30" y="402" clip-path="url(#clipPath2)" stroke="none"/>
    </g>
    <g text-rendering="geometricPrecision" stroke-miterlimit="1.45" shape-rendering="geometricPrecision" transform="matrix(1,0,0,1,4,-174)" stroke-linecap="butt">
      <rect fill="none" x="362" width="30" height="30" y="402" clip-path="url(#clipPath2)"/>
    </g>
    <g text-rendering="geometricPrecision" shape-rendering="geometricPrecision" transform="matrix(1,0,0,1,14.972,22.031)">
      <g clip-path="url(#clipPath3)">
        <svg xml:space="preserve" opacity="1" writing-mode="lr-tb" stop-color="rgb(0, 0, 0)" shape-rendering="auto" glyph-orientation-horizontal="0deg" color-profile="auto" lighting-color="rgb(255, 255, 255)" color="rgb(0, 0, 0)" font-weight="400" alignment-baseline="auto" font-style="normal" version="1.1" color-interpolation-filters="linearrgb" text-anchor="start" stroke-linecap="butt" color-interpolation="srgb" font-variant="normal" word-spacing="normal" fill-opacity="1" text-rendering="auto" clip-path="none" text-decoration="none" letter-spacing="normal" viewBox="-0.064 -0.075 68 46" glyph-orientation-vertical="auto" display="inline" font-size-adjust="none" overflow="hidden" fill="rgb(0, 0, 0)" font-stretch="normal" stroke-dasharray="none" stroke-miterlimit="4" stop-opacity="1" color-rendering="auto" font-size="12" pointer-events="visiblepainted" mask="none" direction="ltr" baseline-shift="baseline" enable-background="new -0.064 -0.075 68 46" fill-rule="nonzero" image-rendering="auto" stroke-dashoffset="0" width="68px" marker-end="none" clip="auto" cursor="auto" stroke="none" filter="none" visibility="visible" kerning="auto" stroke-width="1" font-family="&quot;Arial&quot;,&quot;Helvetica&quot;,sans-serif" flood-opacity="1" clip-rule="nonzero" src="none" height="46px" unicode-bidi="normal" stroke-linejoin="miter" stroke-opacity="1" flood-color="rgb(0, 0, 0)" dominant-baseline="auto" marker-start="none" x="0px" marker-mid="none" y="0px">
<defs>
<clipPath clipPathUnits="userSpaceOnUse" id="clipPath1">
              <path d="M0 0 L766 0 L766 484 L0 484 L0 0 Z"/>
            </clipPath>
            <clipPath clipPathUnits="userSpaceOnUse" id="clipPath2">
              <path d="M-4 174 L762 174 L762 658 L-4 658 L-4 174 Z"/>
            </clipPath>
            <clipPath clipPathUnits="userSpaceOnUse" id="clipPath3">
              <path d="M-14.972 -22.031 L751.028 -22.031 L751.028 461.969 L-14.972 461.969 L-14.972 -22.031 Z"/>
            </clipPath>
          </defs>
<radialGradient gradientTransform="matrix(1.15 0 0 1 -526.6598 -1982.4023)" id="svg1.SVGID_1_" r="21.6001" cx="478.8413" gradientUnits="userSpaceOnUse" cy="1991.2729">
	<stop offset="0" style="stop-color:#F2F2F2"/>
	<stop offset="1" style="stop-color:#8D8D8D"/>
</radialGradient>
<path fill="url(#svg1.SVGID_1_)" d="M10.263,1.903c0-0.987,0.807-1.794,1.794-1.794h43.279c0.986,0,1.795,0.807,1.795,1.794v26.978  c0,0.987-0.809,1.794-1.795,1.794h-43.28c-0.987,0-1.794-0.807-1.794-1.794L10.263,1.903L10.263,1.903z"/>
<path stroke-linecap="round" display="none" fill="none" stroke-linejoin="round" d="  M10.263,1.903c0-0.987,0.807-1.794,1.794-1.794h43.279c0.986,0,1.795,0.807,1.795,1.794v26.978c0,0.987-0.809,1.794-1.795,1.794  h-43.28c-0.987,0-1.794-0.807-1.794-1.794L10.263,1.903L10.263,1.903z" stroke="#3C89C9" stroke-width="0.2185" stroke-miterlimit="10"/>
<radialGradient gradientTransform="matrix(1.1935 0 0 1 -509.6731 -1982.4023)" gradientUnits="userSpaceOnUse" r="47.8462" cx="455.894" id="svg1.SVGID_2_" cy="1983.9624" fx="493.5344" fy="1977.5143">
	<stop offset="0" style="stop-color:#4D4D4D"/>
	<stop offset="1" style="stop-color:#999999"/>
</radialGradient>
<path fill="url(#svg1.SVGID_2_)" d="M11.18,2.819c0-0.987,0.807-1.794,1.794-1.794h41.649c0.986,0,1.795,0.807,1.795,1.794v24.943  c0,0.985-0.809,1.794-1.795,1.794H12.974c-0.987,0-1.794-0.809-1.794-1.794V2.819z"/>
<radialGradient gradientTransform="matrix(1.1923 0 0 1 -510.1314 -1982.4023)" id="svg1.SVGID_3_" r="30.6699" cx="456.8843" gradientUnits="userSpaceOnUse" cy="1984.0386">
	<stop offset="0" style="stop-color:#9CD7FF"/>
	<stop offset="1" style="stop-color:#3C89C9"/>
</radialGradient>
<path fill="url(#svg1.SVGID_3_)" d="M11.689,3.228c0-0.987,0.807-1.794,1.794-1.794h40.633c0.986,0,1.795,0.807,1.795,1.794v24.126  c0,0.986-0.809,1.794-1.795,1.794H13.483c-0.987,0-1.794-0.809-1.794-1.794V3.228z"/>
<path fill="#F2F2F2" opacity="0.24" d="M11.689,21.472V3.228c0-0.987,0.807-1.794,1.794-1.794h40.633  c0.986,0,1.795,0.807,1.795,1.794v9.454c0,0.987-10.518,5.21-18.256,6.795C29.917,21.062,11.689,21.472,11.689,21.472z"/>
<linearGradient gradientTransform="matrix(1 0 0 -1 -97.6001 -165.0498)" x1="131.3501" x2="131.3501" gradientUnits="userSpaceOnUse" y1="-212.2612" y2="-170.6274" id="svg1.SVGID_4_">
	<stop offset="0" style="stop-color:#4D4D4D"/>
	<stop offset="0.0667" style="stop-color:#717171"/>
	<stop offset="0.069" style="stop-color:#757575"/>
	<stop offset="0.0831" style="stop-color:#8C8C8C"/>
	<stop offset="0.0996" style="stop-color:#9E9E9E"/>
	<stop offset="0.1196" style="stop-color:#AAAAAA"/>
	<stop offset="0.1466" style="stop-color:#B1B1B1"/>
	<stop offset="0.2121" style="stop-color:#B3B3B3"/>
	<stop offset="1" style="stop-color:#C5C5C5"/>
</linearGradient>
<path fill="url(#svg1.SVGID_4_)" d="M58.385,32.234c-0.689-0.856-2.154-1.559-3.254-1.559H12c-1.1,0-2.552,0.711-3.227,1.579  l-7.546,9.717C0,43.55,0.042,43.785,0,44.55v0.125c0.056,0.393,0.311,1.002,1.248,1.002h64.75c0.75,0.002,1.5-0.252,1.5-1.002V44.55  c0-0.813,0-0.813-1.254-2.559L58.385,32.234z"/>
<path fill="#F2F2F2" d="M58.385,32.234c-0.689-0.856-2.154-1.559-3.254-1.559H12  c-1.1,0-2.552,0.711-3.227,1.579l-7.055,9.085l58.098-7.33L58.385,32.234z" enable-background="new    " opacity="0.23"/>
<path fill="#6E6E6E" d="M59.75,37.205c0.344,0.431,0.172,0.783-0.377,0.783H8.249c-0.55,0-0.742-0.369-0.427-0.819l2.786-3.986  c0.315-0.45,1.023-0.819,1.573-0.819h42.729c0.551,0,1.279,0.354,1.623,0.783L59.75,37.205z"/>
<path fill="#6E6E6E" d="M40.43,41.906c0.072,0.217-0.057,0.395-0.285,0.395H26.727c-0.229,0-0.364-0.18-0.3-0.398l0.822-2.826  c0.064-0.221,0.303-0.399,0.532-0.399h11.167c0.229,0,0.475,0.179,0.547,0.396L40.43,41.906z"/>
</svg>
      </g>
    </g>
    <g fill="rgb(153,153,153)" text-rendering="geometricPrecision" shape-rendering="geometricPrecision" transform="matrix(1,0,0,1,4,-174)" stroke="rgb(153,153,153)">
      <rect x="631.215" width="115" height="54" y="189" clip-path="url(#clipPath2)" stroke="none"/>
    </g>
    <g text-rendering="geometricPrecision" stroke-miterlimit="1.45" shape-rendering="geometricPrecision" font-family="sans-serif" transform="matrix(1,0,0,1,4,-174)" stroke-linecap="butt">
      <text x="676.715" xml:space="preserve" y="220.7139" clip-path="url(#clipPath2)" stroke="none">JMS</text>
      <rect fill="none" x="631.215" width="115" height="54" y="189" clip-path="url(#clipPath2)"/>
    </g>
    <g fill="silver" text-rendering="geometricPrecision" shape-rendering="geometricPrecision" transform="matrix(1,0,0,1,4,-174)" stroke="silver">
      <rect x="478" width="30" height="30" y="201" clip-path="url(#clipPath2)" stroke="none"/>
    </g>
    <g text-rendering="geometricPrecision" stroke-miterlimit="1.45" shape-rendering="geometricPrecision" transform="matrix(1,0,0,1,4,-174)" stroke-linecap="butt">
      <rect fill="none" x="478" width="30" height="30" y="201" clip-path="url(#clipPath2)"/>
    </g>
    <g fill="silver" text-rendering="geometricPrecision" shape-rendering="geometricPrecision" transform="matrix(1,0,0,1,4,-174)" stroke="silver">
      <rect x="613.215" width="30" height="30" y="201" clip-path="url(#clipPath2)" stroke="none"/>
    </g>
    <g text-rendering="geometricPrecision" stroke-miterlimit="1.45" shape-rendering="geometricPrecision" transform="matrix(1,0,0,1,4,-174)" stroke-linecap="butt">
      <rect fill="none" x="613.215" width="30" height="30" y="201" clip-path="url(#clipPath2)"/>
    </g>
    <g fill="silver" text-rendering="geometricPrecision" shape-rendering="geometricPrecision" transform="matrix(1,0,0,1,4,-174)" stroke="silver">
      <path d="M108.536 539.25 L176.034 539.25 L176.034 554.25 L191.034 554.25 L191.034 579.25 L108.536 579.25 Z" stroke="none" clip-path="url(#clipPath2)"/>
      <path fill="white" d="M176.034 539.25 L176.034 554.25 L191.034 554.25 Z" clip-path="url(#clipPath2)" fill-rule="evenodd" stroke="none"/>
    </g>
    <g text-rendering="geometricPrecision" stroke-miterlimit="1.45" shape-rendering="geometricPrecision" transform="matrix(1,0,0,1,4,-174)" stroke-linecap="butt">
      <path fill="none" d="M108.536 539.25 L176.034 539.25 L176.034 554.25 L191.034 554.25 L191.034 579.25 L108.536 579.25 Z" clip-path="url(#clipPath2)"/>
      <path fill="none" d="M176.034 539.25 L176.034 554.25 L191.034 554.25 Z" clip-path="url(#clipPath2)" fill-rule="evenodd"/>
      <text x="123.1014" xml:space="preserve" y="556.6133" clip-path="url(#clipPath2)" font-family="sans-serif" stroke="none">Generate </text>
      <text x="136.118" xml:space="preserve" y="571.3145" clip-path="url(#clipPath2)" font-family="sans-serif" stroke="none">TPIC</text>
    </g>
    <g fill="silver" text-rendering="geometricPrecision" shape-rendering="geometricPrecision" transform="matrix(1,0,0,1,4,-174)" stroke="silver">
      <path d="M223 539.25 L279.57 539.25 L279.57 554.25 L294.57 554.25 L294.57 579.25 L223 579.25 Z" stroke="none" clip-path="url(#clipPath2)"/>
      <path fill="white" d="M279.57 539.25 L279.57 554.25 L294.57 554.25 Z" clip-path="url(#clipPath2)" fill-rule="evenodd" stroke="none"/>
    </g>
    <g text-rendering="geometricPrecision" stroke-miterlimit="1.45" shape-rendering="geometricPrecision" transform="matrix(1,0,0,1,4,-174)" stroke-linecap="butt">
      <path fill="none" d="M223 539.25 L279.57 539.25 L279.57 554.25 L294.57 554.25 L294.57 579.25 L223 579.25 Z" clip-path="url(#clipPath2)"/>
      <path fill="none" d="M279.57 539.25 L279.57 554.25 L294.57 554.25 Z" clip-path="url(#clipPath2)" fill-rule="evenodd"/>
      <text x="245.4461" xml:space="preserve" y="556.6133" clip-path="url(#clipPath2)" font-family="sans-serif" stroke="none">Pass</text>
      <text x="245.118" xml:space="preserve" y="571.3145" clip-path="url(#clipPath2)" font-family="sans-serif" stroke="none">TPIC</text>
    </g>
    <g fill="silver" text-rendering="geometricPrecision" shape-rendering="geometricPrecision" transform="matrix(1,0,0,1,4,-174)" stroke="silver">
      <path d="M335.751 539.25 L403.249 539.25 L403.249 554.25 L418.249 554.25 L418.249 579.25 L335.751 579.25 Z" stroke="none" clip-path="url(#clipPath2)"/>
      <path fill="white" d="M403.249 539.25 L403.249 554.25 L418.249 554.25 Z" clip-path="url(#clipPath2)" fill-rule="evenodd" stroke="none"/>
    </g>
    <g text-rendering="geometricPrecision" stroke-miterlimit="1.45" shape-rendering="geometricPrecision" transform="matrix(1,0,0,1,4,-174)" stroke-linecap="butt">
      <path fill="none" d="M335.751 539.25 L403.249 539.25 L403.249 554.25 L418.249 554.25 L418.249 579.25 L335.751 579.25 Z" clip-path="url(#clipPath2)"/>
      <path fill="none" d="M403.249 539.25 L403.249 554.25 L418.249 554.25 Z" clip-path="url(#clipPath2)" fill-rule="evenodd"/>
      <text x="355.3232" xml:space="preserve" y="556.6133" clip-path="url(#clipPath2)" font-family="sans-serif" stroke="none">Receive</text>
      <text x="363.333" xml:space="preserve" y="571.3145" clip-path="url(#clipPath2)" font-family="sans-serif" stroke="none">TPIC</text>
    </g>
    <g fill="silver" text-rendering="geometricPrecision" shape-rendering="geometricPrecision" transform="matrix(1,0,0,1,4,-174)" stroke="silver">
      <path d="M459.43 539.25 L516 539.25 L516 554.25 L531 554.25 L531 579.25 L459.43 579.25 Z" stroke="none" clip-path="url(#clipPath2)"/>
      <path fill="white" d="M516 539.25 L516 554.25 L531 554.25 Z" clip-path="url(#clipPath2)" fill-rule="evenodd" stroke="none"/>
    </g>
    <g text-rendering="geometricPrecision" stroke-miterlimit="1.45" shape-rendering="geometricPrecision" transform="matrix(1,0,0,1,4,-174)" stroke-linecap="butt">
      <path fill="none" d="M459.43 539.25 L516 539.25 L516 554.25 L531 554.25 L531 579.25 L459.43 579.25 Z" clip-path="url(#clipPath2)"/>
      <path fill="none" d="M516 539.25 L516 554.25 L531 554.25 Z" clip-path="url(#clipPath2)" fill-rule="evenodd"/>
      <text x="481.8761" xml:space="preserve" y="556.6133" clip-path="url(#clipPath2)" font-family="sans-serif" stroke="none">Pass</text>
      <text x="481.548" xml:space="preserve" y="571.3145" clip-path="url(#clipPath2)" font-family="sans-serif" stroke="none">TPIC</text>
    </g>
    <g fill="silver" text-rendering="geometricPrecision" shape-rendering="geometricPrecision" transform="matrix(1,0,0,1,4,-174)" stroke="silver">
      <path d="M586.966 539.25 L654.464 539.25 L654.464 554.25 L669.464 554.25 L669.464 579.25 L586.966 579.25 Z" stroke="none" clip-path="url(#clipPath2)"/>
      <path fill="white" d="M654.464 539.25 L654.464 554.25 L669.464 554.25 Z" clip-path="url(#clipPath2)" fill-rule="evenodd" stroke="none"/>
    </g>
    <g text-rendering="geometricPrecision" stroke-miterlimit="1.45" shape-rendering="geometricPrecision" transform="matrix(1,0,0,1,4,-174)" stroke-linecap="butt">
      <path fill="none" d="M586.966 539.25 L654.464 539.25 L654.464 554.25 L669.464 554.25 L669.464 579.25 L586.966 579.25 Z" clip-path="url(#clipPath2)"/>
      <path fill="none" d="M654.464 539.25 L654.464 554.25 L669.464 554.25 Z" clip-path="url(#clipPath2)" fill-rule="evenodd"/>
      <text x="606.5383" xml:space="preserve" y="556.6133" clip-path="url(#clipPath2)" font-family="sans-serif" stroke="none">Receive</text>
      <text x="614.548" xml:space="preserve" y="571.3145" clip-path="url(#clipPath2)" font-family="sans-serif" stroke="none">TPIC</text>
    </g>
    <g fill="silver" text-rendering="geometricPrecision" shape-rendering="geometricPrecision" transform="matrix(1,0,0,1,4,-174)" stroke="silver">
      <path d="M586.966 603 L654.464 603 L654.464 618 L669.464 618 L669.464 643 L586.966 643 Z" stroke="none" clip-path="url(#clipPath2)"/>
      <path fill="white" d="M654.464 603 L654.464 618 L669.464 618 Z" clip-path="url(#clipPath2)" fill-rule="evenodd" stroke="none"/>
    </g>
    <g text-rendering="geometricPrecision" stroke-miterlimit="1.45" shape-rendering="geometricPrecision" transform="matrix(1,0,0,1,4,-174)" stroke-linecap="butt">
      <path fill="none" d="M586.966 603 L654.464 603 L654.464 618 L669.464 618 L669.464 643 L586.966 643 Z" clip-path="url(#clipPath2)"/>
      <path fill="none" d="M654.464 603 L654.464 618 L669.464 618 Z" clip-path="url(#clipPath2)" fill-rule="evenodd"/>
      <text x="610.2062" xml:space="preserve" y="620.3633" clip-path="url(#clipPath2)" font-family="sans-serif" stroke="none">Return</text>
      <text x="614.548" xml:space="preserve" y="635.0645" clip-path="url(#clipPath2)" font-family="sans-serif" stroke="none">TPIC</text>
    </g>
    <g fill="silver" text-rendering="geometricPrecision" shape-rendering="geometricPrecision" transform="matrix(1,0,0,1,4,-174)" stroke="silver">
      <path d="M459.43 603 L516 603 L516 618 L531 618 L531 643 L459.43 643 Z" stroke="none" clip-path="url(#clipPath2)"/>
      <path fill="white" d="M516 603 L516 618 L531 618 Z" clip-path="url(#clipPath2)" fill-rule="evenodd" stroke="none"/>
    </g>
    <g text-rendering="geometricPrecision" stroke-miterlimit="1.45" shape-rendering="geometricPrecision" transform="matrix(1,0,0,1,4,-174)" stroke-linecap="butt">
      <path fill="none" d="M459.43 603 L516 603 L516 618 L531 618 L531 643 L459.43 643 Z" clip-path="url(#clipPath2)"/>
      <path fill="none" d="M516 603 L516 618 L531 618 Z" clip-path="url(#clipPath2)" fill-rule="evenodd"/>
      <text x="473.5382" xml:space="preserve" y="620.3633" clip-path="url(#clipPath2)" font-family="sans-serif" stroke="none">Receive</text>
      <text x="481.548" xml:space="preserve" y="635.0645" clip-path="url(#clipPath2)" font-family="sans-serif" stroke="none">TPIC</text>
    </g>
    <g fill="silver" text-rendering="geometricPrecision" shape-rendering="geometricPrecision" transform="matrix(1,0,0,1,4,-174)" stroke="silver">
      <path d="M335.751 603 L403.249 603 L403.249 618 L418.249 618 L418.249 643 L335.751 643 Z" stroke="none" clip-path="url(#clipPath2)"/>
      <path fill="white" d="M403.249 603 L403.249 618 L418.249 618 Z" clip-path="url(#clipPath2)" fill-rule="evenodd" stroke="none"/>
    </g>
    <g text-rendering="geometricPrecision" stroke-miterlimit="1.45" shape-rendering="geometricPrecision" transform="matrix(1,0,0,1,4,-174)" stroke-linecap="butt">
      <path fill="none" d="M335.751 603 L403.249 603 L403.249 618 L418.249 618 L418.249 643 L335.751 643 Z" clip-path="url(#clipPath2)"/>
      <path fill="none" d="M403.249 603 L403.249 618 L418.249 618 Z" clip-path="url(#clipPath2)" fill-rule="evenodd"/>
      <text x="358.9912" xml:space="preserve" y="620.3633" clip-path="url(#clipPath2)" font-family="sans-serif" stroke="none">Return</text>
      <text x="363.333" xml:space="preserve" y="635.0645" clip-path="url(#clipPath2)" font-family="sans-serif" stroke="none">TPIC</text>
    </g>
    <g fill="silver" text-rendering="geometricPrecision" shape-rendering="geometricPrecision" transform="matrix(1,0,0,1,4,-174)" stroke="silver">
      <path d="M223 603 L279.57 603 L279.57 618 L294.57 618 L294.57 643 L223 643 Z" stroke="none" clip-path="url(#clipPath2)"/>
      <path fill="white" d="M279.57 603 L279.57 618 L294.57 618 Z" clip-path="url(#clipPath2)" fill-rule="evenodd" stroke="none"/>
    </g>
    <g text-rendering="geometricPrecision" stroke-miterlimit="1.45" shape-rendering="geometricPrecision" transform="matrix(1,0,0,1,4,-174)" stroke-linecap="butt">
      <path fill="none" d="M223 603 L279.57 603 L279.57 618 L294.57 618 L294.57 643 L223 643 Z" clip-path="url(#clipPath2)"/>
      <path fill="none" d="M279.57 603 L279.57 618 L294.57 618 Z" clip-path="url(#clipPath2)" fill-rule="evenodd"/>
      <text x="237.1082" xml:space="preserve" y="620.3633" clip-path="url(#clipPath2)" font-family="sans-serif" stroke="none">Receive</text>
      <text x="245.118" xml:space="preserve" y="635.0645" clip-path="url(#clipPath2)" font-family="sans-serif" stroke="none">TPIC</text>
    </g>
    <g fill="silver" text-rendering="geometricPrecision" shape-rendering="geometricPrecision" transform="matrix(1,0,0,1,4,-174)" stroke="silver">
      <path d="M108.536 603 L176.034 603 L176.034 618 L191.034 618 L191.034 643 L108.536 643 Z" stroke="none" clip-path="url(#clipPath2)"/>
      <path fill="white" d="M176.034 603 L176.034 618 L191.034 618 Z" clip-path="url(#clipPath2)" fill-rule="evenodd" stroke="none"/>
    </g>
    <g text-rendering="geometricPrecision" stroke-miterlimit="1.45" shape-rendering="geometricPrecision" transform="matrix(1,0,0,1,4,-174)" stroke-linecap="butt">
      <path fill="none" d="M108.536 603 L176.034 603 L176.034 618 L191.034 618 L191.034 643 L108.536 643 Z" clip-path="url(#clipPath2)"/>
      <path fill="none" d="M176.034 603 L176.034 618 L191.034 618 Z" clip-path="url(#clipPath2)" fill-rule="evenodd"/>
      <text x="131.7762" xml:space="preserve" y="620.3633" clip-path="url(#clipPath2)" font-family="sans-serif" stroke="none">Return</text>
      <text x="136.118" xml:space="preserve" y="635.0645" clip-path="url(#clipPath2)" font-family="sans-serif" stroke="none">TPIC</text>
    </g>
    <g text-rendering="geometricPrecision" stroke-miterlimit="1.45" shape-rendering="geometricPrecision" transform="matrix(1,0,0,1,4,-174)" stroke-linecap="butt">
      <path fill="none" d="M273.785 216 L351 216" clip-path="url(#clipPath2)"/>
      <path d="M362 216 L350 210 L350 222 Z" clip-path="url(#clipPath2)" stroke="none"/>
    </g>
    <g text-rendering="geometricPrecision" stroke-miterlimit="1.45" shape-rendering="geometricPrecision" transform="matrix(1,0,0,1,4,-174)" stroke-linecap="butt">
      <path fill="none" d="M273.785 417 L351 417" clip-path="url(#clipPath2)"/>
      <path d="M362 417 L350 411 L350 423 Z" clip-path="url(#clipPath2)" stroke="none"/>
    </g>
    <g text-rendering="geometricPrecision" stroke-miterlimit="1.45" shape-rendering="geometricPrecision" transform="matrix(1,0,0,1,4,-174)" stroke-linecap="butt">
      <path fill="none" d="M68.4459 219 L123.785 219" clip-path="url(#clipPath2)"/>
      <path d="M134.785 219 L122.785 213 L122.785 225 Z" clip-path="url(#clipPath2)" stroke="none"/>
    </g>
    <g text-rendering="geometricPrecision" stroke-miterlimit="1.45" shape-rendering="geometricPrecision" transform="matrix(1,0,0,1,4,-174)" stroke-linecap="butt">
      <path fill="none" d="M508 216 L602.215 216" clip-path="url(#clipPath2)"/>
      <path d="M613.215 216 L601.215 210 L601.215 222 Z" clip-path="url(#clipPath2)" stroke="none"/>
    </g>
    <g text-rendering="geometricPrecision" stroke-miterlimit="1.45" stroke-dasharray="6,2" shape-rendering="geometricPrecision" transform="matrix(1,0,0,1,4,-174)" stroke-linecap="butt">
      <path fill="none" d="M143.4597 539.2601 L116.355 453.6 L116.355 254.6 L130.223 239.8318" clip-path="url(#clipPath2)"/>
      <path d="M135.6993 234 L123.84 239.325 L129.5385 240.5608 L131.1297 246.1704 Z" clip-path="url(#clipPath2)" stroke="none"/>
      <path fill="none" stroke-dasharray="none" d="M191.0592 559.25 L214.971 559.25" clip-path="url(#clipPath2)"/>
      <path stroke-dasharray="none" d="M222.971 559.25 L210.971 554.25 L213.971 559.25 L210.971 564.25 Z" clip-path="url(#clipPath2)" stroke="none"/>
      <path fill="none" d="M269.7174 539.2806 L280.355 519.85 L280.355 451.6 L272.3684 438.7888" clip-path="url(#clipPath2)"/>
      <path d="M268.1362 432 L270.2415 444.8284 L272.8974 439.6374 L278.7275 439.5381 Z" clip-path="url(#clipPath2)" stroke="none"/>
      <path fill="none" d="M278.0618 539.2316 L293.355 523.35 L293.355 254.6 L277.5562 236.9594" clip-path="url(#clipPath2)"/>
      <path d="M272.2189 231 L276.5002 243.2748 L278.2233 237.7043 L283.9494 236.6033 Z" clip-path="url(#clipPath2)" stroke="none"/>
      <path fill="none" stroke-dasharray="none" d="M294.5439 559.25 L327.7317 559.25" clip-path="url(#clipPath2)"/>
      <path stroke-dasharray="none" d="M335.7317 559.25 L323.7317 554.25 L326.7317 559.25 L323.7317 564.25 Z" clip-path="url(#clipPath2)" stroke="none"/>
      <path fill="none" d="M368.6727 539.2806 L360.57 519.85 L360.57 447.6 L365.1617 439.0483" clip-path="url(#clipPath2)"/>
      <path d="M368.9461 432 L358.8643 440.2072 L364.6886 439.9293 L367.6746 444.9377 Z" clip-path="url(#clipPath2)" stroke="none"/>
      <path fill="none" d="M351.9132 539.2349 L333.57 524.6 L338.57 250.6 L356.0547 234.8579" clip-path="url(#clipPath2)"/>
      <path d="M362 229.5051 L349.7365 233.8185 L355.3115 235.527 L356.4275 241.2502 Z" clip-path="url(#clipPath2)" stroke="none"/>
      <path fill="none" stroke-dasharray="none" d="M418.2425 559.25 L451.3972 559.25" clip-path="url(#clipPath2)"/>
      <path stroke-dasharray="none" d="M459.3972 559.25 L447.3972 554.25 L450.3972 559.25 L447.3972 564.25 Z" clip-path="url(#clipPath2)" stroke="none"/>
      <path fill="none" d="M510.0847 539.2436 L523.57 521.1 L523.57 254.6 L509.8463 237.2714" clip-path="url(#clipPath2)"/>
      <path d="M504.8795 231 L508.4101 243.5114 L510.4672 238.0554 L516.2494 237.3029 Z" clip-path="url(#clipPath2)" stroke="none"/>
      <path fill="none" stroke-dasharray="none" d="M531.0302 559.25 L578.9779 559.25" clip-path="url(#clipPath2)"/>
      <path stroke-dasharray="none" d="M586.9779 559.25 L574.9779 554.25 L577.9779 559.25 L574.9779 564.25 Z" clip-path="url(#clipPath2)" stroke="none"/>
      <path fill="none" d="M612.4964 539.2374 L601.785 525.6 L601.785 257.6 L614.3949 237.7524" clip-path="url(#clipPath2)"/>
      <path d="M618.6849 231 L608.0296 238.4474 L613.8586 238.5965 L616.4702 243.8099 Z" clip-path="url(#clipPath2)" stroke="none"/>
      <path fill="none" stroke-dasharray="none" d="M628.215 579.2653 L628.215 594.9692" clip-path="url(#clipPath2)"/>
      <path stroke-dasharray="none" d="M628.215 602.9692 L633.215 590.9692 L628.215 593.9692 L623.215 590.9692 Z" clip-path="url(#clipPath2)" stroke="none"/>
      <path fill="none" stroke-dasharray="none" d="M586.9448 623 L539.0021 623" clip-path="url(#clipPath2)"/>
      <path stroke-dasharray="none" d="M531.0021 623 L543.0021 628 L540.0021 623 L543.0021 618 Z" clip-path="url(#clipPath2)" stroke="none"/>
      <path fill="none" stroke-dasharray="none" d="M459.4561 623 L426.2683 623" clip-path="url(#clipPath2)"/>
      <path stroke-dasharray="none" d="M418.2683 623 L430.2683 628 L427.2683 623 L430.2683 618 Z" clip-path="url(#clipPath2)" stroke="none"/>
      <path fill="none" stroke-dasharray="none" d="M335.7575 623 L302.6028 623" clip-path="url(#clipPath2)"/>
      <path stroke-dasharray="none" d="M294.6028 623 L306.6028 628 L303.6028 623 L306.6028 618 Z" clip-path="url(#clipPath2)" stroke="none"/>
      <path fill="none" stroke-dasharray="none" d="M222.9928 623 L199.0001 623" clip-path="url(#clipPath2)"/>
      <path stroke-dasharray="none" d="M191.0001 623 L203.0001 628 L200.0001 623 L203.0001 618 Z" clip-path="url(#clipPath2)" stroke="none"/>
    </g>
  </g>
</svg>
