<?xml version="1.0" encoding="UTF-8" standalone="no"?>
<!-- Created with Inkscape (http://www.inkscape.org/) -->

<svg
   xmlns:dc="http://purl.org/dc/elements/1.1/"
   xmlns:cc="http://creativecommons.org/ns#"
   xmlns:rdf="http://www.w3.org/1999/02/22-rdf-syntax-ns#"
   xmlns:svg="http://www.w3.org/2000/svg"
   xmlns="http://www.w3.org/2000/svg"
   width="189.01553"
   height="110.47612"
   version="1.1"
>

  <metadata>
    <rdf:RDF>
      <cc:Work
         rdf:about="">
        <dc:format>image/svg+xml</dc:format>
        <dc:type
           rdf:resource="http://purl.org/dc/dcmitype/StillImage" />
        <dc:title />
      </cc:Work>
    </rdf:RDF>
  </metadata>
  <g
     id="main"
     style="display:inline"
     transform="translate(-194.39586,-135.84283)">
    <path
       style="fill:#ffff00;fill-opacity:1;stroke:#000000;stroke-width:3.4000001;stroke-linecap:butt;stroke-linejoin:round;stroke-miterlimit:4;stroke-opacity:1;stroke-dasharray:none"
       d="m 196.09586,222.64813 c 0.75762,11.61676 6.31345,15.15229 6.31345,15.15229 4.1376,3.251 11.4357,5.67177 17.1726,6.81853 54.04316,-9.24185 108.08633,-9.02247 162.12949,-0.75762 -3.55272,-8.7856 -7.15014,-17.21348 -11.36422,-20.70812 -4.96477,-5.55661 -15.18532,-6.66006 -24.4962,-10.35406 -6.22986,-23.31784 -6.54618,-45.7255 -11.11168,-68.43784 -1.7866,-1.26269 -3.251,-2.52538 -6.31345,-3.78808 l -9.84899,6.06092 -11.11168,-8.33375 c -6.14437,-0.81434 -11.28692,-1.28502 -19.44544,0.25253 l -38.63833,16.16244 c -7.95616,4.37344 -14.01884,10.09881 -20.70812,19.95052 -5.14118,8.49172 -4.2554,27.70181 -5.80839,42.17386 -13.73414,0.96613 -24.36928,1.61424 -26.76904,5.80838 z"
       id="path3050"/>
    <path
       style="fill:none;stroke:#000000;stroke-width:2;stroke-linecap:butt;stroke-linejoin:miter;stroke-miterlimit:4;stroke-opacity:1;stroke-dasharray:none"
       d="m 218.95056,243.73507 c 0.91582,-5.12188 1.95279,-9.39563 3.53554,-9.84899 6.25882,-5.14999 16.27317,-5.79335 25.75889,-7.07107 18.14285,-1.71903 23.93072,-1.77352 38.3858,-1.51523 14.7918,-0.22837 23.76824,0.19707 37.1231,1.2627 13.91294,1.61907 24.02856,2.94065 37.62818,7.3236 8.47444,3.283 12.71637,5.3033 19.44544,9.84899 l 0,0 0,0"
       id="path3858" />
    <path
       style="fill:none;stroke:#000000;stroke-width:1px;stroke-linecap:butt;stroke-linejoin:miter;stroke-opacity:1"
       d="m 331.83511,152.06373 c -5.65956,15.26524 0.96149,20.00424 4.04061,27.77919"
       id="path3873" />
    <path
       style="fill:#000000;fill-opacity:1;stroke:none"
       d="m 223.49625,210.40003 c 7.5357,-6.23257 13.88457,-9.08132 21.2132,-13.13198 11.0275,-5.00566 14.7314,-6.81193 27.02159,-10.10152 8.45444,-1.99498 13.85617,-3.04654 23.2335,-3.28299 10.92538,-0.25694 11.83292,-0.52908 23.48605,1.26268 7.60421,0.8137 10.693,1.75892 17.93021,5.3033 l 5.55583,4.04061 5.30331,26.76904 c -4.47555,-3.83018 -7.8088,-6.75887 -11.61675,-8.58629 -8.75466,-2.23849 -14.7314,-3.1474 -26.26397,-3.53553 l -17.93022,0.25254 c -10.2577,0.0476 -16.5957,1.21561 -24.49619,3.53553 l -17.9302,4.29315 -26.26397,1.01015 z"
       id="path3856" />
    <path
       style="fill:none;stroke:#000000;stroke-width:1px;stroke-linecap:butt;stroke-linejoin:miter;stroke-opacity:1"
       d="m 291.42901,150.04342 c 17.05957,4.50887 19.33313,18.07053 -0.50508,31.06219"
       id="path3871" />
    <path
       style="fill:none;stroke:#000000;stroke-width:1px;stroke-linecap:butt;stroke-linejoin:miter;stroke-opacity:1"
       d="m 246.72976,216.96603 c 6.22927,1.26269 12.83866,1.89533 20.45559,4.54568"
       id="path3875" />
    <path
       style="fill:none;stroke:#000000;stroke-width:1px;stroke-linecap:butt;stroke-linejoin:miter;stroke-opacity:1"
       d="m 318.19805,146.76042 c 2.38902,2.90245 5.77761,4.07952 8.83883,4.29316"
       id="path3877" />
  </g>
</svg>
